solid Default
  facet normal 0.000000e+00 0.000000e+00 -1.000000e+00
    outer loop
      vertex 3.000000e+01 3.000000e+01 0.000000e+00
      vertex 3.000000e+01 1.000001e+01 0.000000e+00
      vertex 1.000000e+01 1.000001e+01 0.000000e+00
    endloop
  endfacet
  facet normal 0.000000e+00 0.000000e+00 -1.000000e+00
    outer loop
      vertex 3.000000e+01 3.000000e+01 0.000000e+00
      vertex 1.000000e+01 1.000001e+01 0.000000e+00
      vertex 1.000001e+01 3.000000e+01 0.000000e+00
    endloop
  endfacet
  facet normal 0.000000e+00 0.000000e+00 1.000000e+00
    outer loop
      vertex 3.000000e+01 2.999999e+01 1.000000e+01
      vertex 1.000000e+01 3.000000e+01 1.000000e+01
      vertex 1.000000e+01 1.000001e+01 1.000000e+01
    endloop
  endfacet
  facet normal 0.000000e+00 0.000000e+00 1.000000e+00
    outer loop
      vertex 3.000000e+01 2.999999e+01 1.000000e+01
      vertex 1.000000e+01 1.000001e+01 1.000000e+01
      vertex 2.999999e+01 1.000000e+01 1.000000e+01
    endloop
  endfacet
  facet normal 1.000000e+00 -5.722048e-07 -4.768374e-07
    outer loop
      vertex 3.000000e+01 3.000000e+01 0.000000e+00
      vertex 3.000000e+01 2.999999e+01 1.000000e+01
      vertex 2.999999e+01 1.000000e+01 1.000000e+01
    endloop
  endfacet
  facet normal 1.000000e+00 0.000000e+00 6.675720e-07
    outer loop
      vertex 3.000000e+01 3.000000e+01 0.000000e+00
      vertex 2.999999e+01 1.000000e+01 1.000000e+01
      vertex 3.000000e+01 1.000001e+01 0.000000e+00
    endloop
  endfacet
  facet normal -4.768374e-07 -1.000000e+00 -5.722049e-07
    outer loop
      vertex 3.000000e+01 1.000001e+01 0.000000e+00
      vertex 2.999999e+01 1.000000e+01 1.000000e+01
      vertex 1.000000e+01 1.000001e+01 1.000000e+01
    endloop
  endfacet
  facet normal -9.536748e-08 -1.000000e+00 1.907348e-07
    outer loop
      vertex 3.000000e+01 1.000001e+01 0.000000e+00
      vertex 1.000000e+01 1.000001e+01 1.000000e+01
      vertex 1.000000e+01 1.000001e+01 0.000000e+00
    endloop
  endfacet
  facet normal -1.000000e+00 2.384187e-07 -2.861023e-07
    outer loop
      vertex 1.000000e+01 1.000001e+01 0.000000e+00
      vertex 1.000000e+01 1.000001e+01 1.000000e+01
      vertex 1.000000e+01 3.000000e+01 1.000000e+01
    endloop
  endfacet
  facet normal -1.000000e+00 2.384187e-07 -2.861022e-07
    outer loop
      vertex 1.000000e+01 1.000001e+01 0.000000e+00
      vertex 1.000000e+01 3.000000e+01 1.000000e+01
      vertex 1.000001e+01 3.000000e+01 0.000000e+00
    endloop
  endfacet
  facet normal 2.384187e-07 1.000000e+00 4.768370e-07
    outer loop
      vertex 3.000000e+01 2.999999e+01 1.000000e+01
      vertex 3.000000e+01 3.000000e+01 0.000000e+00
      vertex 1.000001e+01 3.000000e+01 0.000000e+00
    endloop
  endfacet
  facet normal 2.861024e-07 1.000000e+00 3.814698e-07
    outer loop
      vertex 3.000000e+01 2.999999e+01 1.000000e+01
      vertex 1.000001e+01 3.000000e+01 0.000000e+00
      vertex 1.000000e+01 3.000000e+01 1.000000e+01
    endloop
  endfacet
endsolid Default
